<svg xmlns="http://www.w3.org/2000/svg" style="display: none;">
  <defs>
    <!-- Document icon -->
    <symbol id="icon-document" viewBox="0 0 24 24">
      <path d="M14 2H6a2 2 0 0 0-2 2v16a2 2 0 0 0 2 2h12a2 2 0 0 0 2-2V8z"></path>
      <polyline points="14,2 14,8 20,8"></polyline>
      <line x1="16" y1="13" x2="8" y2="13"></line>
      <line x1="16" y1="17" x2="8" y2="17"></line>
      <polyline points="10,9 9,9 8,9"></polyline>
    </symbol>

    <!-- Lock icon -->
    <symbol id="icon-lock" viewBox="0 0 24 24">
      <rect x="3" y="11" width="18" height="11" rx="2" ry="2"></rect>
      <circle cx="12" cy="16" r="1"></circle>
      <path d="M7 11V7a5 5 0 0 1 10 0v4"></path>
    </symbol>

    <!-- Sun icon -->
    <symbol id="icon-sun" viewBox="0 0 24 24">
      <circle cx="12" cy="12" r="5"></circle>
      <path d="M12 1v2M12 21v2M4.22 4.22l1.42 1.42M18.36 18.36l1.42 1.42M1 12h2M21 12h2M4.22 19.78l1.42-1.42M18.36 5.64l1.42-1.42"></path>
    </symbol>

    <!-- Moon icon -->
    <symbol id="icon-moon" viewBox="0 0 24 24">
      <path d="M21 12.79A9 9 0 1 1 11.21 3 7 7 0 0 0 21 12.79z"></path>
    </symbol>

    <!-- Help/Question mark icon -->
    <symbol id="icon-help" viewBox="0 0 24 24">
      <circle cx="12" cy="12" r="10"></circle>
      <path d="M9.09 9a3 3 0 0 1 5.83 1c0 2-3 3-3 3"></path>
      <line x1="12" y1="17" x2="12.01" y2="17"></line>
    </symbol>

    <!-- Merge icon -->
    <symbol id="icon-merge" viewBox="0 0 24 24">
      <path d="M14 2H6a2 2 0 0 0-2 2v16a2 2 0 0 0 2 2h12a2 2 0 0 0 2-2V8z"></path>
      <polyline points="14,2 14,8 20,8"></polyline>
      <path d="M16 13h-3"></path>
      <path d="M16 17h-3"></path>
      <path d="M10 13h-1"></path>
      <path d="M10 17h-1"></path>
    </symbol>

    <!-- Split icon -->
    <symbol id="icon-split" viewBox="0 0 24 24">
      <circle cx="6" cy="6" r="3"></circle>
      <circle cx="6" cy="18" r="3"></circle>
      <line x1="20" y1="4" x2="8.12" y2="15.88"></line>
      <line x1="14.47" y1="14.48" x2="20" y2="20"></line>
      <line x1="8.12" y1="8.12" x2="12" y2="12"></line>
    </symbol>

    <!-- Extract icon -->
    <symbol id="icon-extract" viewBox="0 0 24 24">
      <path d="M16 4h.01"></path>
      <path d="M16 20h.01"></path>
      <path d="M8 4h.01"></path>
      <path d="M8 20h.01"></path>
      <path d="M12 4h.01"></path>
      <path d="M12 20h.01"></path>
      <path d="M20 8v.01"></path>
      <path d="M20 12v.01"></path>
      <path d="M20 16v.01"></path>
      <path d="M4 8v.01"></path>
      <path d="M4 12v.01"></path>
      <path d="M4 16v.01"></path>
    </symbol>

    <!-- Rotate icon -->
    <symbol id="icon-rotate" viewBox="0 0 24 24">
      <path d="M3 12a9 9 0 0 1 9-9 9.75 9.75 0 0 1 6.74 2.74L21 8"></path>
      <path d="M21 3v5h-5"></path>
      <path d="M21 12a9 9 0 0 1-9 9 9.75 9.75 0 0 1-6.74-2.74L3 16"></path>
      <path d="M8 16H3v5"></path>
    </symbol>

    <!-- Delete icon -->
    <symbol id="icon-delete" viewBox="0 0 24 24">
      <path d="M3 6h18"></path>
      <path d="M19 6v14c0 1-1 2-2 2H7c-1 0-2-1-2-2V6"></path>
      <path d="M8 6V4c0-1 1-2 2-2h4c1 0 2 1 2 2v2"></path>
      <line x1="10" y1="11" x2="10" y2="17"></line>
      <line x1="14" y1="11" x2="14" y2="17"></line>
    </symbol>

    <!-- Reorder icon -->
    <symbol id="icon-reorder" viewBox="0 0 24 24">
      <path d="M7 16V4l13 12-13 12z"></path>
      <path d="M7 4l13 12"></path>
    </symbol>

    <!-- Cloud icon -->
    <symbol id="icon-cloud" viewBox="0 0 24 24">
      <path d="M18 10h-1.26A8 8 0 1 0 9 20h9a5 5 0 0 0 0-10z"></path>
    </symbol>

    <!-- Folder icon -->
    <symbol id="icon-folder" viewBox="0 0 24 24">
      <path d="M22 19a2 2 0 0 1-2 2H4a2 2 0 0 1-2-2V5a2 2 0 0 1 2-2h5l2 3h9a2 2 0 0 1 2 2z"></path>
    </symbol>

    <!-- Clipboard icon -->
    <symbol id="icon-clipboard" viewBox="0 0 24 24">
      <path d="M4 19.5A2.5 2.5 0 0 1 6.5 17H20"></path>
      <path d="M6.5 2H20v20H6.5A2.5 2.5 0 0 1 4 19.5v-15A2.5 2.5 0 0 1 6.5 2z"></path>
    </symbol>

    <!-- Plus icon -->
    <symbol id="icon-plus" viewBox="0 0 24 24">
      <line x1="12" y1="5" x2="12" y2="19"></line>
      <line x1="5" y1="12" x2="19" y2="12"></line>
    </symbol>

    <!-- Lightning bolt icon -->
    <symbol id="icon-lightning" viewBox="0 0 24 24">
      <path d="M13 2L3 14h9l-1 8 10-12h-9l1-8z"></path>
    </symbol>
  </defs>
</svg>